<svg width="20.000000" height="20.000000" viewBox="0 0 20 20" fill="none" xmlns="http://www.w3.org/2000/svg" xmlns:xlink="http://www.w3.org/1999/xlink">
	<desc>
			Created with Pixso.
	</desc>
	<defs/>
	<g opacity="0.000000">
		<path id="Vector" d="M0 20L0 0L20 0L20 20L0 20Z" fill="#FFFFFF" fill-opacity="1.000000" fill-rule="evenodd"/>
	</g>
	<path id="Vector" d="M15.83 3.33L14.16 3.33C13.94 3.33 13.73 3.42 13.57 3.57C13.42 3.73 13.33 3.94 13.33 4.16C13.33 4.38 13.42 4.59 13.57 4.75C13.73 4.91 13.94 5 14.16 5L15 5L15 15L14.16 15C13.94 15 13.73 15.08 13.57 15.24C13.42 15.4 13.33 15.61 13.33 15.83C13.33 16.05 13.42 16.26 13.57 16.42C13.73 16.57 13.94 16.66 14.16 16.66L15.83 16.66C16.05 16.66 16.26 16.57 16.42 16.42C16.57 16.26 16.66 16.05 16.66 15.83L16.66 4.16C16.66 3.94 16.57 3.73 16.42 3.57C16.26 3.42 16.05 3.33 15.83 3.33Z" fill="#FFFFFF" fill-opacity="1.000000" fill-rule="nonzero"/>
	<path id="Vector" d="M9.83 6.16C9.7 5.98 9.5 5.87 9.28 5.84C9.06 5.81 8.84 5.86 8.66 6C8.48 6.13 8.37 6.33 8.34 6.54C8.31 6.76 8.36 6.98 8.5 7.16L10 9.16L3.33 9.16C3.11 9.16 2.9 9.25 2.74 9.41C2.58 9.56 2.5 9.77 2.5 10C2.5 10.22 2.58 10.43 2.74 10.58C2.9 10.74 3.11 10.83 3.33 10.83L10.07 10.83L8.64 12.86C8.57 12.95 8.53 13.05 8.5 13.16C8.48 13.27 8.47 13.38 8.49 13.49C8.51 13.6 8.55 13.7 8.61 13.79C8.67 13.88 8.75 13.97 8.84 14.03C8.98 14.13 9.15 14.18 9.32 14.18C9.45 14.18 9.58 14.15 9.7 14.08C9.82 14.02 9.92 13.94 10 13.83L12.35 10.5C12.45 10.35 12.51 10.18 12.51 10C12.51 9.83 12.45 9.65 12.35 9.51L9.83 6.16Z" fill="#FFFFFF" fill-opacity="1.000000" fill-rule="nonzero"/>
</svg>
