<svg width="15.000000" height="16.666748" viewBox="0 0 15 16.6667" fill="none" xmlns="http://www.w3.org/2000/svg" xmlns:xlink="http://www.w3.org/1999/xlink">
	<desc>
			Created with Pixso.
	</desc>
	<defs/>
	<path id="Vector" d="M12.5 1.66L11.66 1.66L11.66 0.83C11.66 0.61 11.57 0.4 11.42 0.24C11.26 0.08 11.05 0 10.83 0C10.61 0 10.4 0.08 10.24 0.24C10.08 0.4 10 0.61 10 0.83L10 1.66L5 1.66L5 0.83C5 0.61 4.91 0.4 4.75 0.24C4.59 0.08 4.38 0 4.16 0C3.94 0 3.73 0.08 3.57 0.24C3.42 0.4 3.33 0.61 3.33 0.83L3.33 1.66L2.5 1.66C1.83 1.66 1.2 1.93 0.73 2.39C0.26 2.86 0 3.5 0 4.16L0 14.16C0 14.82 0.26 15.46 0.73 15.93C1.2 16.4 1.83 16.66 2.5 16.66L12.5 16.66C13.16 16.66 13.79 16.4 14.26 15.93C14.73 15.46 15 14.82 15 14.16L15 4.16C15 3.5 14.73 2.86 14.26 2.39C13.79 1.93 13.16 1.66 12.5 1.66ZM4.16 12.5C4 12.5 3.84 12.45 3.7 12.35C3.56 12.26 3.45 12.13 3.39 11.98C3.33 11.83 3.31 11.66 3.34 11.5C3.38 11.34 3.46 11.19 3.57 11.07C3.69 10.96 3.84 10.88 4 10.84C4.16 10.81 4.33 10.83 4.48 10.89C4.63 10.96 4.76 11.06 4.85 11.2C4.95 11.34 5 11.5 5 11.66C5 11.88 4.91 12.09 4.75 12.25C4.59 12.41 4.38 12.5 4.16 12.5ZM10.83 12.5L7.5 12.5C7.27 12.5 7.06 12.41 6.91 12.25C6.75 12.09 6.66 11.88 6.66 11.66C6.66 11.44 6.75 11.23 6.91 11.07C7.06 10.92 7.27 10.83 7.5 10.83L10.83 10.83C11.05 10.83 11.26 10.92 11.42 11.07C11.57 11.23 11.66 11.44 11.66 11.66C11.66 11.88 11.57 12.09 11.42 12.25C11.26 12.41 11.05 12.5 10.83 12.5ZM13.33 7.5L1.66 7.5L1.66 4.16C1.66 3.94 1.75 3.73 1.91 3.57C2.06 3.42 2.27 3.33 2.5 3.33L3.33 3.33L3.33 4.16C3.33 4.38 3.42 4.59 3.57 4.75C3.73 4.91 3.94 5 4.16 5C4.38 5 4.59 4.91 4.75 4.75C4.91 4.59 5 4.38 5 4.16L5 3.33L10 3.33L10 4.16C10 4.38 10.08 4.59 10.24 4.75C10.4 4.91 10.61 5 10.83 5C11.05 5 11.26 4.91 11.42 4.75C11.57 4.59 11.66 4.38 11.66 4.16L11.66 3.33L12.5 3.33C12.72 3.33 12.93 3.42 13.08 3.57C13.24 3.73 13.33 3.94 13.33 4.16L13.33 7.5Z" fill="#1A1A1A" fill-opacity="1.000000" fill-rule="nonzero"/>
</svg>
