<svg width="24.000000" height="24.000000" viewBox="0 0 24 24" fill="none" xmlns="http://www.w3.org/2000/svg" xmlns:xlink="http://www.w3.org/1999/xlink">
	<desc>
			Created with Pixso.
	</desc>
	<defs>
		<clipPath id="clip154_22633">
			<rect id="file-text 1" rx="0.000000" width="23.000000" height="23.000000" transform="translate(0.500000 0.500000)" fill="white" fill-opacity="0"/>
		</clipPath>
	</defs>
	<rect id="file-text 1" rx="0.000000" width="23.000000" height="23.000000" transform="translate(0.500000 0.500000)" fill="#FFFFFF" fill-opacity="0"/>
	<g clip-path="url(#clip154_22633)">
		<g opacity="0.000000">
			<path id="Vector" d="M0 0L24 0L24 24L0 24L0 0Z" fill="#1A1A1A" fill-opacity="1.000000" fill-rule="evenodd"/>
		</g>
		<path id="Vector" d="M19.74 7.32L15.3 2.32C15.2 2.22 15.09 2.14 14.96 2.08C14.83 2.02 14.69 2 14.56 1.99L6.56 1.99C6.22 1.99 5.89 2.05 5.58 2.18C5.28 2.3 5 2.48 4.76 2.71C4.52 2.95 4.33 3.22 4.2 3.53C4.07 3.83 4 4.16 4 4.49L4 19.49C4 19.83 4.07 20.16 4.2 20.46C4.33 20.77 4.52 21.04 4.76 21.28C5 21.51 5.28 21.69 5.58 21.81C5.89 21.94 6.22 22 6.56 21.99L17.43 21.99C17.77 22 18.1 21.94 18.41 21.81C18.71 21.69 19 21.51 19.23 21.28C19.47 21.04 19.66 20.77 19.79 20.46C19.92 20.16 19.99 19.83 20 19.49L20 7.99C20 7.75 19.9 7.51 19.74 7.32ZM9 11.99L12 11.99C12.26 11.99 12.51 12.1 12.7 12.29C12.89 12.48 13 12.73 13 12.99C13 13.26 12.89 13.51 12.7 13.7C12.51 13.89 12.26 13.99 12 13.99L9 13.99C8.73 13.99 8.48 13.89 8.29 13.7C8.1 13.51 8 13.26 8 12.99C8 12.73 8.1 12.48 8.29 12.29C8.48 12.1 8.73 11.99 9 11.99ZM15 17.99L9 17.99C8.73 17.99 8.48 17.89 8.29 17.7C8.1 17.51 8 17.26 8 16.99C8 16.73 8.1 16.48 8.29 16.29C8.48 16.1 8.73 15.99 9 15.99L15 15.99C15.26 15.99 15.51 16.1 15.7 16.29C15.89 16.48 16 16.73 16 16.99C16 17.26 15.89 17.51 15.7 17.7C15.51 17.89 15.26 17.99 15 17.99ZM14.71 7.99C14.5 7.97 14.31 7.87 14.18 7.72C14.04 7.56 13.98 7.35 14 7.14L14 3.99L17.74 7.99L14.71 7.99Z" fill="#1A1A1A" fill-opacity="1.000000" fill-rule="nonzero"/>
	</g>
</svg>
