<svg width="16.000000" height="20.000366" viewBox="0 0 16 20.0004" fill="none" xmlns="http://www.w3.org/2000/svg" xmlns:xlink="http://www.w3.org/1999/xlink">
	<desc>
			Created with Pixso.
	</desc>
	<defs/>
	<path id="Vector" d="M15.74 5.33L11.3 0.33C11.2 0.22 11.09 0.14 10.96 0.08C10.83 0.03 10.69 0 10.56 0L2.56 0C2.22 -0.01 1.89 0.05 1.58 0.18C1.28 0.3 1 0.48 0.76 0.71C0.52 0.95 0.33 1.22 0.2 1.53C0.07 1.83 0 2.16 0 2.5L0 17.5C0 17.83 0.07 18.16 0.2 18.46C0.33 18.77 0.52 19.04 0.76 19.28C1 19.51 1.28 19.69 1.58 19.81C1.89 19.94 2.22 20 2.56 20L13.43 20C13.77 20 14.1 19.94 14.41 19.81C14.71 19.69 15 19.51 15.23 19.28C15.47 19.04 15.66 18.77 15.79 18.46C15.92 18.16 15.99 17.83 16 17.5L16 6C16 5.75 15.9 5.51 15.74 5.33ZM5 10L8 10C8.26 10 8.51 10.1 8.7 10.29C8.89 10.48 9 10.73 9 11C9 11.26 8.89 11.51 8.7 11.7C8.51 11.89 8.26 12 8 12L5 12C4.73 12 4.48 11.89 4.29 11.7C4.1 11.51 4 11.26 4 11C4 10.73 4.1 10.48 4.29 10.29C4.48 10.1 4.73 10 5 10ZM11 16L5 16C4.73 16 4.48 15.89 4.29 15.7C4.1 15.51 4 15.26 4 15C4 14.73 4.1 14.48 4.29 14.29C4.48 14.1 4.73 14 5 14L11 14C11.26 14 11.51 14.1 11.7 14.29C11.89 14.48 12 14.73 12 15C12 15.26 11.89 15.51 11.7 15.7C11.51 15.89 11.26 16 11 16ZM10.71 6C10.5 5.97 10.31 5.87 10.18 5.72C10.04 5.56 9.98 5.35 10 5.15L10 2L13.74 6L10.71 6Z" fill="#1A1A1A" fill-opacity="1.000000" fill-rule="nonzero"/>
</svg>
