<svg width="24.000000" height="24.000000" viewBox="0 0 24 24" fill="none" xmlns="http://www.w3.org/2000/svg" xmlns:xlink="http://www.w3.org/1999/xlink">
	<desc>
			Created with Pixso.
	</desc>
	<defs>
		<clipPath id="clip21_3496">
			<rect id="culture" rx="0.000000" width="23.000000" height="23.000000" transform="translate(0.500000 0.500000)" fill="white" fill-opacity="0"/>
		</clipPath>
	</defs>
	<rect id="culture" rx="0.000000" width="23.000000" height="23.000000" transform="translate(0.500000 0.500000)" fill="#FFFFFF" fill-opacity="0"/>
	<g clip-path="url(#clip21_3496)">
		<path id="Vector" d="M2 12C2 9.2 3.14 6.68 4.99 4.86C6.79 3.09 9.26 2 12 2C12.64 2 13.26 2.06 13.87 2.17C18.5 3.05 22 7.11 22 12C22 12.57 21.95 13.14 21.85 13.69C21.05 18.4 16.94 22 12 22C6.47 22 2 17.52 2 12ZM12 22C11.03 21.28 11.19 20.45 11.67 19.62C12.41 18.34 12.41 18.34 12.41 16.64C12.41 14.94 13.42 14.14 17 14.85C18.6 15.17 19.77 12.96 21.85 13.69M13.87 2.17C14.38 3.11 14.18 4.23 13.1 4.66C11.34 5.36 12.6 6.64 11.1 7.43C10.1 7.96 8.6 7.83 7.1 6.24C6.31 5.41 5.83 4.95 4.99 4.86" stroke="#1A1A1A" stroke-opacity="1.000000" stroke-width="1.500000" stroke-linejoin="round"/>
	</g>
</svg>
