<svg width="20.000000" height="20.000000" viewBox="0 0 20 20" fill="none" xmlns="http://www.w3.org/2000/svg" xmlns:xlink="http://www.w3.org/1999/xlink">
	<desc>
			Created with Pixso.
	</desc>
	<defs>
		<clipPath id="clip10_6413">
			<rect id="education" rx="0.000000" width="19.000000" height="19.000000" transform="translate(0.500000 0.500000)" fill="white" fill-opacity="0"/>
		</clipPath>
	</defs>
	<rect id="education" rx="0.000000" width="19.000000" height="19.000000" transform="translate(0.500000 0.500000)" fill="#FFFFFF" fill-opacity="0"/>
	<g clip-path="url(#clip10_6413)">
		<path id="Vector" d="M5.37 16.66C4.24 16.66 3.67 16.66 3.26 16.4C3.06 16.27 2.89 16.1 2.76 15.9C2.5 15.48 2.5 14.92 2.5 13.78C2.5 13.42 2.5 13.24 2.46 13.06C2.44 12.98 2.41 12.89 2.38 12.81C2.31 12.64 2.21 12.49 2.01 12.19L1.66 11.66L6.25 11.66C7.02 11.66 7.41 11.66 7.72 11.79C8.12 11.96 8.45 12.28 8.62 12.69C8.75 13 8.75 13.39 8.75 14.16C8.75 14.94 8.75 15.33 8.62 15.63C8.45 16.04 8.12 16.37 7.72 16.53C7.41 16.66 7.02 16.66 6.25 16.66L5.37 16.66Z" stroke="#34A853" stroke-opacity="1.000000" stroke-width="1.500000" stroke-linejoin="round"/>
		<path id="Vector" d="M14.62 16.66C15.75 16.66 16.32 16.66 16.73 16.4C16.93 16.27 17.1 16.1 17.23 15.9C17.5 15.48 17.5 14.92 17.5 13.78C17.5 13.42 17.5 13.24 17.53 13.06C17.55 12.98 17.58 12.89 17.61 12.81C17.68 12.64 17.78 12.49 17.98 12.19L18.33 11.66L13.75 11.66C12.97 11.66 12.58 11.66 12.27 11.79C11.87 11.96 11.54 12.28 11.37 12.69C11.25 13 11.25 13.39 11.25 14.16C11.25 14.94 11.25 15.33 11.37 15.63C11.54 16.04 11.87 16.37 12.27 16.53C12.58 16.66 12.97 16.66 13.75 16.66L14.62 16.66Z" stroke="#34A853" stroke-opacity="1.000000" stroke-width="1.500000" stroke-linejoin="round"/>
		<path id="Vector" d="M18.33 11.66L15.43 4.55C15.19 3.96 15.07 3.66 14.91 3.52C14.66 3.31 14.33 3.27 14.05 3.41C13.86 3.51 13.68 3.77 13.33 4.29" stroke="#34A853" stroke-opacity="1.000000" stroke-width="1.500000" stroke-linejoin="round" stroke-linecap="round"/>
		<path id="Vector" d="M1.66 11.66L4.56 4.55C4.8 3.96 4.92 3.66 5.08 3.52C5.33 3.31 5.66 3.27 5.94 3.41C6.13 3.51 6.31 3.77 6.66 4.29" stroke="#34A853" stroke-opacity="1.000000" stroke-width="1.500000" stroke-linejoin="round" stroke-linecap="round"/>
		<path id="Vector" d="M8.75 13.33C8.75 12.64 9.3 12.08 10 12.08C10.69 12.08 11.25 12.64 11.25 13.33" stroke="#34A853" stroke-opacity="1.000000" stroke-width="1.500000"/>
	</g>
</svg>
