<svg width="20.002670" height="16.999512" viewBox="0 0 20.0027 16.9995" fill="none" xmlns="http://www.w3.org/2000/svg" xmlns:xlink="http://www.w3.org/1999/xlink">
	<desc>
			Created with Pixso.
	</desc>
	<defs/>
	<path id="Vector" d="M10 16.99C9.86 17 9.73 16.97 9.61 16.92C9.49 16.87 9.38 16.8 9.29 16.7L1.52 8.92C0.54 7.94 0 6.61 0 5.22C0 3.84 0.54 2.51 1.52 1.52C2.5 0.55 3.83 0 5.22 0C6.6 0 7.93 0.55 8.92 1.52L10 2.6L11.08 1.52C12.06 0.55 13.39 0 14.78 0C16.16 0 17.49 0.55 18.48 1.52C19.45 2.51 20 3.84 20 5.22C20 6.61 19.45 7.94 18.48 8.92L10.71 16.7C10.61 16.8 10.5 16.87 10.38 16.92C10.26 16.97 10.13 17 10 16.99Z" fill="#34A853" fill-opacity="1.000000" fill-rule="nonzero"/>
</svg>
