<svg width="24.000000" height="24.000000" viewBox="0 0 24 24" fill="none" xmlns="http://www.w3.org/2000/svg" xmlns:xlink="http://www.w3.org/1999/xlink">
	<desc>
			Created with Pixso.
	</desc>
	<defs>
		<clipPath id="clip21_3506">
			<rect id="health" rx="0.000000" width="23.000000" height="23.000000" transform="translate(0.500000 0.500000)" fill="white" fill-opacity="0"/>
		</clipPath>
	</defs>
	<rect id="health" rx="0.000000" width="23.000000" height="23.000000" transform="translate(0.500000 0.500000)" fill="#FFFFFF" fill-opacity="0"/>
	<g clip-path="url(#clip21_3506)">
		<path id="Vector" d="M13.03 4.06C12.45 4.5 12.16 4.71 12 4.71C11.83 4.71 11.54 4.5 10.96 4.06C9.55 3.01 7.21 2.34 4.53 3.99C1.01 6.15 0.22 13.27 8.33 19.28C9.88 20.42 10.65 20.99 12 20.99C13.34 20.99 14.11 20.42 15.66 19.28C23.77 13.27 22.98 6.15 19.46 3.99C16.78 2.34 14.44 3.01 13.03 4.06Z" stroke="#1A1A1A" stroke-opacity="1.000000" stroke-width="1.500000"/>
		<path id="Vector" d="M12 9L12 15M9 12L15 12" stroke="#1A1A1A" stroke-opacity="1.000000" stroke-width="1.500000" stroke-linecap="round"/>
	</g>
</svg>
