<svg width="13.335938" height="11.333008" viewBox="0 0 13.3359 11.333" fill="none" xmlns="http://www.w3.org/2000/svg" xmlns:xlink="http://www.w3.org/1999/xlink">
	<desc>
			Created with Pixso.
	</desc>
	<defs/>
	<path id="Vector" d="M6.66 11.33C6.58 11.33 6.49 11.31 6.41 11.28C6.33 11.25 6.25 11.2 6.19 11.13L1.01 5.95C0.36 5.29 0 4.41 0 3.48C0 2.56 0.36 1.67 1.01 1.01C1.66 0.36 2.55 0 3.48 0C4.4 0 5.29 0.36 5.94 1.01L6.66 1.73L7.38 1.01C8.04 0.36 8.92 0 9.85 0C10.77 0 11.66 0.36 12.32 1.01C12.97 1.67 13.33 2.56 13.33 3.48C13.33 4.41 12.97 5.29 12.32 5.95L7.14 11.13C7.07 11.2 7 11.25 6.92 11.28C6.84 11.31 6.75 11.33 6.66 11.33Z" fill="#34A853" fill-opacity="1.000000" fill-rule="nonzero"/>
</svg>
