<svg width="144.961807" height="19.999996" viewBox="0 0 144.962 20" fill="none" xmlns="http://www.w3.org/2000/svg" xmlns:xlink="http://www.w3.org/1999/xlink">
	<desc>
			Created with Pixso.
	</desc>
	<defs/>
	<path id="Vector" d="M11.14 20C11 20 10.85 19.97 10.72 19.91C10.58 19.85 10.46 19.76 10.35 19.65L1.69 10.5C0.6 9.34 0 7.78 0 6.15C0 4.52 0.6 2.95 1.69 1.79C2.79 0.64 4.27 0 5.82 0C7.36 0 8.85 0.64 9.94 1.79L11.14 3.07L12.35 1.79C13.44 0.64 14.93 0 16.47 0C18.02 0 19.5 0.64 20.6 1.79C21.68 2.95 22.29 4.52 22.29 6.15C22.29 7.78 21.68 9.34 20.6 10.5L11.94 19.65C11.83 19.76 11.71 19.85 11.57 19.91C11.44 19.97 11.29 20 11.14 20Z" fill="#34A853" fill-opacity="1.000000" fill-rule="nonzero"/>
	<path id="Vector" d="M30.99 18.59C30.82 18.59 30.69 18.54 30.57 18.44C30.46 18.33 30.4 18.19 30.4 18.01L30.4 2.39C30.4 2.21 30.46 2.07 30.57 1.96C30.69 1.84 30.82 1.79 30.99 1.79L33.2 1.79C33.38 1.79 33.52 1.84 33.61 1.96C33.73 2.07 33.78 2.21 33.78 2.39L33.78 8.58L40.96 8.58L40.96 2.39C40.96 2.21 41.02 2.07 41.13 1.96C41.24 1.84 41.38 1.79 41.54 1.79L43.73 1.79C43.91 1.79 44.06 1.84 44.17 1.96C44.29 2.07 44.34 2.21 44.34 2.39L44.34 18.01C44.34 18.17 44.29 18.31 44.17 18.42C44.06 18.53 43.91 18.59 43.73 18.59L41.54 18.59C41.38 18.59 41.24 18.53 41.13 18.42C41.02 18.31 40.96 18.17 40.96 18.01L40.96 11.58L33.78 11.58L33.78 18.01C33.78 18.17 33.73 18.31 33.61 18.42C33.52 18.53 33.38 18.59 33.2 18.59L30.99 18.59Z" fill="#1A1A1A" fill-opacity="1.000000" fill-rule="nonzero"/>
	<path id="Vector" d="M53.31 18.83C51.51 18.83 50.08 18.32 49.02 17.29C47.97 16.27 47.4 14.81 47.32 12.92C47.31 12.76 47.3 12.56 47.3 12.32C47.3 12.07 47.31 11.87 47.32 11.72C47.39 10.52 47.66 9.48 48.15 8.6C48.65 7.72 49.34 7.05 50.22 6.59C51.09 6.11 52.12 5.87 53.31 5.87C54.62 5.87 55.72 6.14 56.61 6.68C57.51 7.21 58.18 7.96 58.63 8.92C59.09 9.86 59.32 10.96 59.32 12.2L59.32 12.71C59.32 12.87 59.26 13 59.14 13.12C59.03 13.23 58.89 13.28 58.71 13.28L50.63 13.28C50.63 13.28 50.63 13.31 50.63 13.36C50.63 13.4 50.63 13.44 50.63 13.48C50.65 14.04 50.75 14.56 50.95 15.04C51.16 15.5 51.46 15.88 51.85 16.16C52.25 16.45 52.73 16.6 53.28 16.6C53.74 16.6 54.12 16.53 54.43 16.4C54.73 16.26 54.98 16.1 55.18 15.92C55.37 15.75 55.51 15.6 55.59 15.49C55.74 15.3 55.85 15.19 55.93 15.16C56.03 15.11 56.17 15.08 56.35 15.08L58.44 15.08C58.6 15.08 58.73 15.13 58.83 15.23C58.94 15.32 58.99 15.44 58.97 15.59C58.96 15.84 58.82 16.16 58.56 16.52C58.32 16.89 57.96 17.25 57.49 17.6C57.02 17.95 56.43 18.25 55.71 18.49C55.02 18.71 54.21 18.83 53.31 18.83ZM50.63 11.27L56.01 11.27L56.01 11.2C56.01 10.57 55.9 10.03 55.69 9.56C55.48 9.1 55.17 8.73 54.77 8.46C54.36 8.19 53.87 8.05 53.31 8.05C52.74 8.05 52.25 8.19 51.85 8.46C51.44 8.73 51.13 9.1 50.92 9.56C50.73 10.03 50.63 10.57 50.63 11.2L50.63 11.27Z" fill="#1A1A1A" fill-opacity="1.000000" fill-rule="nonzero"/>
	<path id="Vector" d="M65.57 18.83C64.73 18.83 63.97 18.67 63.28 18.35C62.6 18.01 62.06 17.57 61.65 17.03C61.26 16.47 61.07 15.84 61.07 15.16C61.07 14.04 61.52 13.15 62.43 12.49C63.36 11.82 64.57 11.37 66.08 11.15L69.41 10.67L69.41 10.16C69.41 9.49 69.24 8.97 68.9 8.6C68.56 8.24 67.98 8.05 67.15 8.05C66.57 8.05 66.09 8.17 65.72 8.41C65.36 8.64 65.09 8.94 64.91 9.32C64.78 9.53 64.6 9.64 64.35 9.64L62.43 9.64C62.25 9.64 62.12 9.59 62.02 9.49C61.94 9.39 61.9 9.27 61.9 9.11C61.91 8.85 62.02 8.54 62.21 8.17C62.41 7.8 62.72 7.45 63.14 7.12C63.56 6.76 64.1 6.47 64.77 6.23C65.43 5.99 66.24 5.87 67.18 5.87C68.2 5.87 69.06 6 69.75 6.25C70.47 6.49 71.04 6.82 71.46 7.24C71.88 7.65 72.19 8.14 72.38 8.7C72.58 9.26 72.67 9.85 72.67 10.48L72.67 18.01C72.67 18.17 72.62 18.31 72.5 18.42C72.39 18.53 72.25 18.59 72.09 18.59L70.12 18.59C69.94 18.59 69.8 18.53 69.68 18.42C69.58 18.31 69.54 18.17 69.54 18.01L69.54 17.08C69.33 17.38 69.04 17.67 68.68 17.94C68.33 18.2 67.89 18.41 67.37 18.59C66.87 18.75 66.27 18.83 65.57 18.83ZM66.4 16.55C66.97 16.55 67.48 16.43 67.93 16.19C68.4 15.95 68.77 15.58 69.03 15.08C69.3 14.57 69.44 13.93 69.44 13.16L69.44 12.66L67.01 13.04C66.05 13.19 65.34 13.42 64.87 13.74C64.39 14.06 64.16 14.45 64.16 14.92C64.16 15.27 64.27 15.57 64.48 15.83C64.7 16.07 64.99 16.25 65.33 16.38C65.67 16.49 66.02 16.55 66.4 16.55Z" fill="#1A1A1A" fill-opacity="1.000000" fill-rule="nonzero"/>
	<path id="Vector" d="M76.38 18.59C76.22 18.59 76.08 18.53 75.97 18.42C75.85 18.31 75.79 18.17 75.79 18.01L75.79 6.71C75.79 6.53 75.85 6.39 75.97 6.28C76.08 6.16 76.22 6.11 76.38 6.11L78.35 6.11C78.51 6.11 78.65 6.16 78.76 6.28C78.89 6.39 78.96 6.53 78.96 6.71L78.96 7.69C79.33 7.18 79.81 6.79 80.39 6.52C80.99 6.24 81.68 6.11 82.46 6.11L83.46 6.11C83.64 6.11 83.77 6.16 83.87 6.28C83.98 6.39 84.04 6.52 84.04 6.68L84.04 8.41C84.04 8.57 83.98 8.71 83.87 8.82C83.77 8.93 83.64 8.99 83.46 8.99L81.56 8.99C80.78 8.99 80.17 9.2 79.74 9.64C79.31 10.07 79.1 10.66 79.1 11.41L79.1 18.01C79.1 18.17 79.05 18.31 78.93 18.42C78.82 18.53 78.67 18.59 78.5 18.59L76.38 18.59Z" fill="#1A1A1A" fill-opacity="1.000000" fill-rule="nonzero"/>
	<path id="Vector" d="M91.66 18.59C90.68 18.59 89.86 18.42 89.2 18.08C88.53 17.75 88.04 17.25 87.71 16.6C87.39 15.92 87.23 15.09 87.23 14.1L87.23 8.65L85.31 8.65C85.14 8.65 85.01 8.6 84.89 8.48C84.78 8.37 84.72 8.24 84.72 8.08L84.72 6.68C84.72 6.52 84.78 6.39 84.89 6.28C85.01 6.16 85.14 6.11 85.31 6.11L87.23 6.11L87.23 2.12C87.23 1.96 87.28 1.83 87.37 1.72C87.49 1.6 87.63 1.55 87.81 1.55L89.78 1.55C89.94 1.55 90.08 1.6 90.2 1.72C90.31 1.83 90.37 1.96 90.37 2.12L90.37 6.11L93.41 6.11C93.57 6.11 93.71 6.16 93.82 6.28C93.93 6.39 93.99 6.52 93.99 6.68L93.99 8.08C93.99 8.24 93.93 8.37 93.82 8.48C93.71 8.6 93.57 8.65 93.41 8.65L90.37 8.65L90.37 13.86C90.37 14.52 90.48 15.03 90.71 15.4C90.95 15.76 91.36 15.95 91.95 15.95L93.63 15.95C93.79 15.95 93.93 16 94.04 16.12C94.15 16.23 94.21 16.36 94.21 16.52L94.21 18.01C94.21 18.17 94.15 18.31 94.04 18.42C93.93 18.53 93.79 18.59 93.63 18.59L91.66 18.59Z" fill="#1A1A1A" fill-opacity="1.000000" fill-rule="nonzero"/>
	<path id="Vector" d="M101.2 18.59C100.94 18.59 100.73 18.52 100.59 18.4C100.44 18.27 100.34 18.11 100.27 17.92L95.06 2.51C95.03 2.43 95.02 2.35 95.02 2.29C95.02 2.15 95.06 2.03 95.16 1.93C95.26 1.84 95.38 1.79 95.53 1.79L97.67 1.79C97.89 1.79 98.06 1.85 98.18 1.98C98.31 2.09 98.39 2.2 98.42 2.32L102.53 14.68L106.62 2.32C106.67 2.2 106.75 2.09 106.86 1.98C106.99 1.85 107.17 1.79 107.4 1.79L109.54 1.79C109.67 1.79 109.78 1.84 109.88 1.93C109.99 2.03 110.05 2.15 110.05 2.29C110.05 2.35 110.03 2.43 110 2.51L104.8 17.92C104.73 18.11 104.63 18.27 104.48 18.4C104.33 18.52 104.13 18.59 103.87 18.59L101.2 18.59Z" fill="#1A1A1A" fill-opacity="1.000000" fill-rule="nonzero"/>
	<path id="Vector" d="M112.75 18.59C112.59 18.59 112.45 18.53 112.34 18.42C112.22 18.31 112.17 18.17 112.17 18.01L112.17 6.68C112.17 6.52 112.22 6.39 112.34 6.28C112.45 6.16 112.59 6.11 112.75 6.11L114.77 6.11C114.95 6.11 115.09 6.16 115.18 6.28C115.3 6.39 115.35 6.52 115.35 6.68L115.35 18.01C115.35 18.17 115.3 18.31 115.18 18.42C115.09 18.53 114.95 18.59 114.77 18.59L112.75 18.59ZM112.65 4.04C112.47 4.04 112.33 4 112.21 3.9C112.12 3.79 112.07 3.64 112.07 3.47L112.07 1.74C112.07 1.58 112.12 1.44 112.21 1.33C112.33 1.22 112.47 1.16 112.65 1.16L114.87 1.16C115.04 1.16 115.19 1.22 115.3 1.33C115.42 1.44 115.47 1.58 115.47 1.74L115.47 3.47C115.47 3.64 115.42 3.79 115.3 3.9C115.19 4 115.04 4.04 114.87 4.04L112.65 4.04Z" fill="#1A1A1A" fill-opacity="1.000000" fill-rule="nonzero"/>
	<path id="Vector" d="M125.59 18.83C124.65 18.83 123.86 18.67 123.23 18.35C122.61 18.03 122.1 17.62 121.69 17.12L121.69 18.01C121.69 18.17 121.64 18.31 121.52 18.42C121.43 18.53 121.29 18.59 121.11 18.59L119.19 18.59C119.03 18.59 118.89 18.53 118.78 18.42C118.66 18.31 118.6 18.17 118.6 18.01L118.6 2.12C118.6 1.96 118.66 1.83 118.78 1.72C118.89 1.6 119.03 1.55 119.19 1.55L121.26 1.55C121.43 1.55 121.57 1.6 121.67 1.72C121.78 1.83 121.84 1.96 121.84 2.12L121.84 7.45C122.25 6.99 122.75 6.61 123.35 6.32C123.96 6.02 124.71 5.87 125.59 5.87C126.45 5.87 127.19 6.01 127.82 6.3C128.46 6.59 128.98 7 129.41 7.52C129.84 8.04 130.18 8.64 130.4 9.32C130.63 10.01 130.75 10.76 130.77 11.56C130.78 11.84 130.79 12.11 130.79 12.35C130.79 12.57 130.78 12.83 130.77 13.12C130.74 13.95 130.61 14.72 130.38 15.42C130.15 16.11 129.83 16.71 129.41 17.22C128.98 17.73 128.46 18.13 127.82 18.42C127.19 18.69 126.45 18.83 125.59 18.83ZM124.69 16.26C125.38 16.26 125.93 16.12 126.32 15.83C126.71 15.52 126.98 15.13 127.14 14.65C127.32 14.17 127.43 13.64 127.46 13.07C127.49 12.59 127.49 12.11 127.46 11.63C127.43 11.05 127.32 10.52 127.14 10.04C126.98 9.56 126.71 9.18 126.32 8.89C125.93 8.59 125.38 8.43 124.69 8.43C124.04 8.43 123.51 8.58 123.11 8.87C122.7 9.16 122.39 9.52 122.18 9.97C121.97 10.4 121.86 10.86 121.84 11.34C121.82 11.63 121.82 11.94 121.82 12.28C121.82 12.6 121.82 12.9 121.84 13.19C121.87 13.68 121.98 14.17 122.16 14.65C122.35 15.12 122.65 15.5 123.06 15.8C123.48 16.11 124.02 16.26 124.69 16.26Z" fill="#1A1A1A" fill-opacity="1.000000" fill-rule="nonzero"/>
	<path id="Vector" d="M138.95 18.83C137.15 18.83 135.72 18.32 134.67 17.29C133.61 16.27 133.05 14.81 132.96 12.92C132.95 12.76 132.94 12.56 132.94 12.32C132.94 12.07 132.95 11.87 132.96 11.72C133.03 10.52 133.3 9.48 133.79 8.6C134.29 7.72 134.98 7.05 135.86 6.59C136.73 6.11 137.76 5.87 138.95 5.87C140.26 5.87 141.37 6.14 142.26 6.68C143.15 7.21 143.82 7.96 144.28 8.92C144.73 9.86 144.96 10.96 144.96 12.2L144.96 12.71C144.96 12.87 144.9 13 144.79 13.12C144.67 13.23 144.53 13.28 144.35 13.28L136.27 13.28C136.27 13.28 136.27 13.31 136.27 13.36C136.27 13.4 136.27 13.44 136.27 13.48C136.29 14.04 136.39 14.56 136.59 15.04C136.8 15.5 137.1 15.88 137.49 16.16C137.89 16.45 138.37 16.6 138.92 16.6C139.38 16.6 139.76 16.53 140.07 16.4C140.38 16.26 140.63 16.1 140.82 15.92C141.02 15.75 141.15 15.6 141.24 15.49C141.38 15.3 141.49 15.19 141.58 15.16C141.67 15.11 141.81 15.08 141.99 15.08L144.08 15.08C144.24 15.08 144.37 15.13 144.47 15.23C144.58 15.32 144.63 15.44 144.62 15.59C144.6 15.84 144.46 16.16 144.2 16.52C143.96 16.89 143.6 17.25 143.13 17.6C142.66 17.95 142.07 18.25 141.36 18.49C140.66 18.71 139.86 18.83 138.95 18.83ZM136.27 11.27L141.65 11.27L141.65 11.2C141.65 10.57 141.54 10.03 141.33 9.56C141.12 9.1 140.81 8.73 140.41 8.46C140 8.19 139.52 8.05 138.95 8.05C138.38 8.05 137.89 8.19 137.49 8.46C137.08 8.73 136.78 9.1 136.56 9.56C136.37 10.03 136.27 10.57 136.27 11.2L136.27 11.27Z" fill="#1A1A1A" fill-opacity="1.000000" fill-rule="nonzero"/>
</svg>
