<svg width="16.000000" height="19.890015" viewBox="0 0 16 19.89" fill="none" xmlns="http://www.w3.org/2000/svg" xmlns:xlink="http://www.w3.org/1999/xlink">
	<desc>
			Created with Pixso.
	</desc>
	<defs/>
	<path id="Vector" d="M13 5.89L12 5.89L12 4C12 2.93 11.57 1.92 10.82 1.17C10.07 0.42 9.06 0 8 0C6.93 0 5.92 0.42 5.17 1.17C4.42 1.92 4 2.93 4 4L4 5.89L3 5.89C2.2 5.89 1.44 6.2 0.87 6.76C0.31 7.33 0 8.09 0 8.89L0 16.89C0 17.68 0.31 18.44 0.87 19.01C1.44 19.57 2.2 19.89 3 19.89L13 19.89C13.79 19.89 14.55 19.57 15.12 19.01C15.68 18.44 16 17.68 16 16.89L16 8.89C16 8.09 15.68 7.33 15.12 6.76C14.55 6.2 13.79 5.89 13 5.89ZM6 4C5.98 3.45 6.18 2.92 6.56 2.53C6.93 2.13 7.45 1.9 8 1.89C8.54 1.9 9.06 2.13 9.43 2.53C9.81 2.92 10.01 3.45 10 4L10 5.89L6 5.89L6 4ZM8 15.89C7.4 15.89 6.82 15.71 6.33 15.38C5.83 15.05 5.45 14.58 5.22 14.03C5 13.48 4.94 12.88 5.05 12.3C5.17 11.72 5.45 11.18 5.87 10.76C6.29 10.34 6.83 10.06 7.41 9.94C7.99 9.83 8.59 9.89 9.14 10.11C9.69 10.34 10.16 10.72 10.49 11.22C10.82 11.71 11 12.29 11 12.89C11 13.68 10.68 14.44 10.12 15.01C9.55 15.57 8.79 15.89 8 15.89Z" fill="#34A853" fill-opacity="1.000000" fill-rule="nonzero"/>
</svg>
