<svg width="24.000000" height="24.000000" viewBox="0 0 24 24" fill="none" xmlns="http://www.w3.org/2000/svg" xmlns:xlink="http://www.w3.org/1999/xlink">
	<desc>
			Created with Pixso.
	</desc>
	<defs/>
	<g opacity="0.000000">
		<path id="Vector" d="M0 0L24 0L24 24L0 24L0 0Z" fill="#FFFFFF" fill-opacity="1.000000" fill-rule="evenodd"/>
	</g>
	<path id="Vector" d="M9 11C9.79 11 10.56 10.76 11.22 10.32C11.88 9.88 12.39 9.26 12.69 8.53C12.99 7.79 13.07 6.99 12.92 6.21C12.76 5.44 12.38 4.73 11.82 4.17C11.26 3.61 10.55 3.23 9.78 3.07C9 2.92 8.2 3 7.46 3.3C6.73 3.6 6.11 4.11 5.67 4.77C5.23 5.43 5 6.2 5 7C5 8.06 5.42 9.07 6.17 9.82C6.92 10.57 7.93 11 9 11Z" fill="#FFFFFF" fill-opacity="1.000000" fill-rule="nonzero"/>
	<path id="Vector" d="M17 13C17.59 13 18.17 12.82 18.66 12.49C19.16 12.16 19.54 11.69 19.77 11.14C19.99 10.59 20.05 9.99 19.94 9.41C19.82 8.83 19.54 8.29 19.12 7.87C18.7 7.45 18.16 7.17 17.58 7.05C17 6.94 16.4 7 15.85 7.22C15.3 7.45 14.83 7.83 14.5 8.33C14.17 8.82 14 9.4 14 10C14 10.79 14.31 11.55 14.87 12.12C15.44 12.68 16.2 13 17 13Z" fill="#FFFFFF" fill-opacity="1.000000" fill-rule="nonzero"/>
	<path id="Vector" d="M21 20C21.26 20 21.51 19.89 21.7 19.7C21.89 19.51 22 19.26 22 19C21.99 18.06 21.73 17.14 21.24 16.35C20.74 15.56 20.03 14.92 19.2 14.51C18.36 14.1 17.42 13.93 16.49 14.03C15.56 14.12 14.67 14.47 13.94 15.05C12.96 14.07 11.71 13.41 10.35 13.14C9 12.87 7.59 13.01 6.31 13.54C5.04 14.07 3.95 14.96 3.18 16.11C2.41 17.26 2 18.61 2 20C2 20.26 2.1 20.51 2.29 20.7C2.48 20.89 2.73 21 3 21L15 21C15.26 21 15.51 20.89 15.7 20.7C15.89 20.51 16 20.26 16 20L21 20Z" fill="#FFFFFF" fill-opacity="1.000000" fill-rule="nonzero"/>
</svg>
