<svg width="20.039978" height="20.000000" viewBox="0 0 20.04 20" fill="none" xmlns="http://www.w3.org/2000/svg" xmlns:xlink="http://www.w3.org/1999/xlink">
	<desc>
			Created with Pixso.
	</desc>
	<defs/>
	<path id="Vector" d="M15.4 20C11.31 19.99 7.4 18.37 4.51 15.48C1.62 12.59 0 8.68 0 4.6C0 3.37 0.48 2.2 1.34 1.34C2.2 0.48 3.38 0 4.59 0C4.85 -0.01 5.11 0.02 5.37 0.07C5.61 0.1 5.85 0.16 6.09 0.25C6.25 0.3 6.4 0.4 6.51 0.53C6.62 0.67 6.7 0.82 6.73 1L8.1 7C8.14 7.16 8.14 7.33 8.09 7.49C8.05 7.65 7.96 7.8 7.84 7.91C7.71 8.06 7.71 8.07 6.47 8.7C7.46 10.87 9.19 12.6 11.35 13.6C12 12.36 12.01 12.35 12.15 12.22C12.26 12.1 12.41 12.01 12.57 11.97C12.73 11.92 12.9 11.92 13.07 11.96L19.07 13.33C19.23 13.36 19.38 13.44 19.51 13.56C19.64 13.67 19.73 13.81 19.79 13.98C19.87 14.21 19.93 14.46 19.98 14.71C20.02 14.96 20.04 15.21 20.04 15.47C20.02 16.68 19.52 17.84 18.65 18.69C17.78 19.54 16.61 20.01 15.4 20Z" fill="#34A853" fill-opacity="1.000000" fill-rule="nonzero"/>
</svg>
