<svg width="24.000000" height="24.000000" viewBox="0 0 24 24" fill="none" xmlns="http://www.w3.org/2000/svg" xmlns:xlink="http://www.w3.org/1999/xlink">
	<desc>
			Created with Pixso.
	</desc>
	<defs>
		<clipPath id="clip12_1124">
			<rect id="right" rx="0.000000" width="23.000000" height="23.000000" transform="translate(0.500000 0.500000)" fill="white" fill-opacity="0"/>
		</clipPath>
	</defs>
	<rect id="right" rx="0.000000" width="23.000000" height="23.000000" transform="translate(0.500000 0.500000)" fill="#FFFFFF" fill-opacity="0"/>
	<g clip-path="url(#clip12_1124)">
		<g opacity="0.000000">
			<path id="Vector" d="M0 24L0 0L24 0L24 24L0 24Z" fill="#34A853" fill-opacity="1.000000" fill-rule="evenodd"/>
		</g>
		<path id="Vector" d="M10.5 17C10.36 17 10.23 16.97 10.11 16.92C9.99 16.87 9.88 16.8 9.78 16.71C9.69 16.61 9.62 16.5 9.57 16.38C9.52 16.26 9.49 16.13 9.49 16C9.49 15.86 9.52 15.73 9.57 15.61C9.62 15.49 9.69 15.38 9.78 15.29L13.1 12L9.91 8.69C9.73 8.5 9.62 8.24 9.62 7.98C9.62 7.72 9.73 7.46 9.91 7.28C10.01 7.18 10.12 7.11 10.24 7.06C10.36 7.01 10.49 6.98 10.62 6.98C10.76 6.98 10.89 7.01 11.01 7.06C11.13 7.11 11.24 7.18 11.34 7.28L15.2 11.28C15.38 11.46 15.48 11.71 15.48 11.98C15.48 12.24 15.38 12.49 15.2 12.68L11.2 16.68C11.11 16.77 11 16.85 10.88 16.91C10.76 16.96 10.63 16.99 10.5 17Z" fill="#34A853" fill-opacity="1.000000" fill-rule="nonzero"/>
	</g>
</svg>
