<svg width="20.000000" height="16.000000" viewBox="0 0 20 16" fill="none" xmlns="http://www.w3.org/2000/svg" xmlns:xlink="http://www.w3.org/1999/xlink">
	<desc>
			Created with Pixso.
	</desc>
	<defs/>
	<path id="Vector" d="M17 0L3 0C2.2 0 1.44 0.31 0.87 0.87C0.31 1.44 0 2.2 0 3L0 13C0 13.79 0.31 14.55 0.87 15.12C1.44 15.68 2.2 16 3 16L17 16C17.79 16 18.55 15.68 19.12 15.12C19.68 14.55 20 13.79 20 13L20 3C20 2.2 19.68 1.44 19.12 0.87C18.55 0.31 17.79 0 17 0ZM17 2L10.5 6.47C10.34 6.55 10.17 6.6 10 6.6C9.82 6.6 9.65 6.55 9.5 6.47L3 2L17 2Z" fill="#34A853" fill-opacity="1.000000" fill-rule="nonzero"/>
</svg>
