  <svg width="16.666016" height="16.667847" viewBox="0 0 16.666 16.6678" fill="none" xmlns="http://www.w3.org/2000/svg" xmlns:xlink="http://www.w3.org/1999/xlink">
	<desc>
			Created with Pixso.
	</desc>
	<defs/>
	<path id="Vector" d="M15.83 3.33L11.66 3.33L11.66 1.94C11.64 1.4 11.41 0.9 11.02 0.54C10.63 0.17 10.11 -0.02 9.58 0L7.08 0C6.54 -0.02 6.03 0.17 5.64 0.54C5.25 0.9 5.01 1.4 5 1.94L5 3.33L0.83 3.33C0.61 3.33 0.4 3.42 0.24 3.57C0.08 3.73 0 3.94 0 4.16C0 4.38 0.08 4.6 0.24 4.75C0.4 4.91 0.61 5 0.83 5L1.66 5L1.66 14.16C1.66 14.83 1.92 15.46 2.39 15.93C2.86 16.4 3.5 16.66 4.16 16.66L12.5 16.66C13.16 16.66 13.79 16.4 14.26 15.93C14.73 15.46 15 14.83 15 14.16L15 5L15.83 5C16.05 5 16.26 4.91 16.42 4.75C16.57 4.6 16.66 4.38 16.66 4.16C16.66 3.94 16.57 3.73 16.42 3.57C16.26 3.42 16.05 3.33 15.83 3.33ZM6.66 11.66C6.66 11.88 6.57 12.1 6.42 12.25C6.26 12.41 6.05 12.5 5.83 12.5C5.61 12.5 5.4 12.41 5.24 12.25C5.08 12.1 5 11.88 5 11.66L5 8.33C5 8.11 5.08 7.9 5.24 7.74C5.4 7.58 5.61 7.5 5.83 7.5C6.05 7.5 6.26 7.58 6.42 7.74C6.57 7.9 6.66 8.11 6.66 8.33L6.66 11.66ZM6.66 1.94C6.66 1.8 6.84 1.66 7.08 1.66L9.58 1.66C9.82 1.66 10 1.8 10 1.94L10 3.33L6.66 3.33L6.66 1.94ZM11.66 11.66C11.66 11.88 11.57 12.1 11.42 12.25C11.26 12.41 11.05 12.5 10.83 12.5C10.61 12.5 10.4 12.41 10.24 12.25C10.08 12.1 10 11.88 10 11.66L10 8.33C10 8.11 10.08 7.9 10.24 7.74C10.4 7.58 10.61 7.5 10.83 7.5C11.05 7.5 11.26 7.58 11.42 7.74C11.57 7.9 11.66 8.11 11.66 8.33L11.66 11.66Z" fill="#34A853" fill-opacity="1.000000" fill-rule="nonzero"/>
</svg>
