<svg width="7.501953" height="10.000977" viewBox="0 0 7.50195 10.001" fill="none" xmlns="http://www.w3.org/2000/svg" xmlns:xlink="http://www.w3.org/1999/xlink">
	<desc>
			Created with Pixso.
	</desc>
	<defs/>
	<path id="Vector" d="M5.86 10C5.47 10 5.08 9.86 4.78 9.61L0.53 6.1C0.36 5.97 0.23 5.8 0.14 5.61C0.04 5.42 0 5.21 0 5C0 4.78 0.04 4.57 0.14 4.38C0.23 4.19 0.36 4.02 0.53 3.89L4.78 0.38C5.04 0.17 5.34 0.05 5.67 0.01C6 -0.03 6.33 0.02 6.62 0.16C6.88 0.28 7.1 0.46 7.25 0.7C7.41 0.93 7.49 1.21 7.5 1.49L7.5 8.5C7.49 8.79 7.41 9.06 7.25 9.3C7.1 9.53 6.88 9.72 6.62 9.83C6.38 9.94 6.12 9.99 5.86 10Z" fill="#FFFFFF" fill-opacity="1.000000" fill-rule="nonzero"/>
</svg>
