<svg width="7.501953" height="10.000977" viewBox="0 0 7.50195 10.001" fill="none" xmlns="http://www.w3.org/2000/svg" xmlns:xlink="http://www.w3.org/1999/xlink">
	<desc>
			Created with Pixso.
	</desc>
	<defs/>
	<path id="Vector" d="M1.63 10C1.37 9.99 1.11 9.94 0.87 9.83C0.61 9.72 0.39 9.53 0.24 9.3C0.08 9.06 0 8.79 0 8.5L0 1.49C0 1.21 0.08 0.93 0.24 0.7C0.39 0.46 0.61 0.28 0.87 0.16C1.17 0.02 1.5 -0.03 1.82 0.01C2.15 0.05 2.46 0.17 2.71 0.38L6.96 3.89C7.13 4.02 7.26 4.19 7.36 4.38C7.45 4.57 7.5 4.78 7.5 5C7.5 5.21 7.45 5.42 7.36 5.61C7.26 5.8 7.13 5.97 6.96 6.1L2.71 9.61C2.41 9.86 2.02 10 1.63 10Z" fill="#FFFFFF" fill-opacity="1.000000" fill-rule="nonzero"/>
</svg>
