<svg width="96" height="16" viewBox="0 0 96 16" fill="none" xmlns="http://www.w3.org/2000/svg">
<g clip-path="url(#clip0_73_552)">
<path d="M7.99999 14C7.91225 14.0005 7.82527 13.9837 7.74405 13.9505C7.66282 13.9173 7.58895 13.8685 7.52665 13.8067L2.34665 8.62001C1.69689 7.96346 1.33243 7.07706 1.33243 6.15334C1.33243 5.22963 1.69689 4.34323 2.34665 3.68668C3.00149 3.03369 3.88854 2.66699 4.81332 2.66699C5.7381 2.66699 6.62515 3.03369 7.27999 3.68668L7.99999 4.40668L8.71999 3.68668C9.37483 3.03369 10.2619 2.66699 11.1867 2.66699C12.1114 2.66699 12.9985 3.03369 13.6533 3.68668C14.3031 4.34323 14.6675 5.22963 14.6675 6.15334C14.6675 7.07706 14.3031 7.96346 13.6533 8.62001L8.47332 13.8067C8.41103 13.8685 8.33715 13.9173 8.25592 13.9505C8.1747 13.9837 8.08772 14.0005 7.99999 14Z" fill="#34A853"/>
</g>
<g clip-path="url(#clip1_73_552)">
<path d="M28 14C27.9122 14.0005 27.8253 13.9837 27.744 13.9505C27.6628 13.9173 27.5889 13.8685 27.5267 13.8067L22.3467 8.62001C21.6969 7.96346 21.3324 7.07706 21.3324 6.15334C21.3324 5.22963 21.6969 4.34323 22.3467 3.68668C23.0015 3.03369 23.8885 2.66699 24.8133 2.66699C25.7381 2.66699 26.6251 3.03369 27.28 3.68668L28 4.40668L28.72 3.68668C29.3748 3.03369 30.2619 2.66699 31.1867 2.66699C32.1114 2.66699 32.9985 3.03369 33.6533 3.68668C34.3031 4.34323 34.6675 5.22963 34.6675 6.15334C34.6675 7.07706 34.3031 7.96346 33.6533 8.62001L28.4733 13.8067C28.411 13.8685 28.3371 13.9173 28.2559 13.9505C28.1747 13.9837 28.0877 14.0005 28 14Z" fill="#34A853"/>
</g>
<g clip-path="url(#clip2_73_552)">
<path d="M48 14C47.9122 14.0005 47.8253 13.9837 47.744 13.9505C47.6628 13.9173 47.5889 13.8685 47.5267 13.8067L42.3467 8.62001C41.6969 7.96346 41.3324 7.07706 41.3324 6.15334C41.3324 5.22963 41.6969 4.34323 42.3467 3.68668C43.0015 3.03369 43.8885 2.66699 44.8133 2.66699C45.7381 2.66699 46.6251 3.03369 47.28 3.68668L48 4.40668L48.72 3.68668C49.3748 3.03369 50.2619 2.66699 51.1867 2.66699C52.1114 2.66699 52.9985 3.03369 53.6533 3.68668C54.3031 4.34323 54.6675 5.22963 54.6675 6.15334C54.6675 7.07706 54.3031 7.96346 53.6533 8.62001L48.4733 13.8067C48.411 13.8685 48.3371 13.9173 48.2559 13.9505C48.1747 13.9837 48.0877 14.0005 48 14Z" fill="#34A853"/>
</g>
<g clip-path="url(#clip3_73_552)">
<path d="M68 14C67.9122 14.0005 67.8253 13.9837 67.744 13.9505C67.6628 13.9173 67.5889 13.8685 67.5267 13.8067L62.3467 8.62001C61.6969 7.96346 61.3324 7.07706 61.3324 6.15334C61.3324 5.22963 61.6969 4.34323 62.3467 3.68668C63.0015 3.03369 63.8885 2.66699 64.8133 2.66699C65.7381 2.66699 66.6251 3.03369 67.28 3.68668L68 4.40668L68.72 3.68668C69.3748 3.03369 70.2619 2.66699 71.1867 2.66699C72.1114 2.66699 72.9985 3.03369 73.6533 3.68668C74.3031 4.34323 74.6675 5.22963 74.6675 6.15334C74.6675 7.07706 74.3031 7.96346 73.6533 8.62001L68.4733 13.8067C68.411 13.8685 68.3371 13.9173 68.2559 13.9505C68.1747 13.9837 68.0877 14.0005 68 14Z" fill="#34A853"/>
</g>
<g clip-path="url(#clip4_73_552)">
<path d="M88 14C87.9122 14.0005 87.8253 13.9837 87.744 13.9505C87.6628 13.9173 87.5889 13.8685 87.5267 13.8067L82.3467 8.62001C81.6969 7.96346 81.3324 7.07706 81.3324 6.15334C81.3324 5.22963 81.6969 4.34323 82.3467 3.68668C83.0015 3.03369 83.8885 2.66699 84.8133 2.66699C85.7381 2.66699 86.6251 3.03369 87.28 3.68668L88 4.40668L88.72 3.68668C89.3748 3.03369 90.2619 2.66699 91.1867 2.66699C92.1114 2.66699 92.9985 3.03369 93.6533 3.68668C94.3031 4.34323 94.6675 5.22963 94.6675 6.15334C94.6675 7.07706 94.3031 7.96346 93.6533 8.62001L88.4733 13.8067C88.411 13.8685 88.3371 13.9173 88.2559 13.9505C88.1747 13.9837 88.0877 14.0005 88 14Z" fill="#34A853"/>
</g>
<defs>
<clipPath id="clip0_73_552">
<rect width="16" height="16" fill="white"/>
</clipPath>
<clipPath id="clip1_73_552">
<rect width="16" height="16" fill="white" transform="translate(20)"/>
</clipPath>
<clipPath id="clip2_73_552">
<rect width="16" height="16" fill="white" transform="translate(40)"/>
</clipPath>
<clipPath id="clip3_73_552">
<rect width="16" height="16" fill="white" transform="translate(60)"/>
</clipPath>
<clipPath id="clip4_73_552">
<rect width="16" height="16" fill="white" transform="translate(80)"/>
</clipPath>
</defs>
</svg>
